<svg xmlns="http://www.w3.org/2000/svg" xmlns:xlink="http://www.w3.org/1999/xlink" width="53" height="53" viewBox="0 0 53 53"><defs><path id="a" d="M1047.52 828.03v37.22l-2.23 7.4a1.88 1.88 0 1 1-3.62 0l-2.22-7.52V836.9h-1.61v8.87a2.42 2.42 0 0 1-4.84 0v-11.29a2.42 2.42 0 0 1 2.42-2.42h4.03v-4.03a4.04 4.04 0 0 1 8.07 0zm-8.07 5.65h-4.03a.8.8 0 0 0-.8.8v11.3a.8.8 0 0 0 1.6 0v-10.49h3.23zm6.18 32.25h-4.29l1.88 6.26c.07.24.46.24.53 0zm.27-25.8h-4.84v24.2h4.84zm0-12.1a2.42 2.42 0 0 0-4.84 0v10.49h4.84zm37.1 2.42V874h-33.87v-43.55h6.45v-1.61h4.9a5.65 5.65 0 0 1 11.17 0h4.9v1.61zm-27.42 6.45v-1.61h-1.61v28.23h5.64v5.64h18.55V835.3h-1.61v1.61h-3.23v-1.61h1.62v-4.84h-4.84v-.8a4.04 4.04 0 0 0-8.07 0v.8h-4.84v4.84h14.52v1.61zm-.47 28.23l2.89 2.9v-2.9zm26.28-33.07h-4.84v1.62h3.22v37.1h-21.3l-6.12-6.12v-30.98h3.23v-1.62h-4.84v40.33h30.65zm-24.2 6.46h1.62v1.6h-1.62zm3.23 0h14.52v1.6h-14.52zm-3.23 3.22h17.75v1.61h-17.75zm0 3.23h14.52v1.61h-14.52zm16.13 0h1.62v1.61h-1.62zm-16.13 8.06c0-2.71 3.9-4.84 8.87-4.84 4.98 0 8.88 2.13 8.88 4.84s-3.9 4.84-8.88 4.84c-4.97 0-8.87-2.13-8.87-4.84zm1.62 0c0 1.53 2.98 3.23 7.25 3.23 4.28 0 7.26-1.7 7.26-3.23 0-1.52-2.98-3.22-7.26-3.22-4.27 0-7.25 1.7-7.25 3.22zm4.84 0a2.42 2.42 0 1 1 4.84 0 2.42 2.42 0 0 1-4.84 0zm1.6 0a.8.8 0 1 0 1.62 0 .8.8 0 0 0-1.61 0zm0 6.45h3.23v1.62h-1.6v1.6h1.6v1.62h-1.6v1.61h1.6v1.62h-3.22zm4.85 6.45h6.45v1.62h-6.45zm0-3.22h6.45v1.61h-6.45zm0-3.23h6.45v1.62h-6.45z"/></defs><g transform="translate(-1031 -822)"><use fill="#0084ca" xlink:href="#a"/></g></svg>